<svg width="69" height="39" viewBox="0 0 69 39" fill="none" xmlns="http://www.w3.org/2000/svg">
<path fill-rule="evenodd" clip-rule="evenodd" d="M20.0865 2.82053C17.5338 2.9424 15.0075 3.04059 12.4599 3.23663C11.9116 3.27682 11.5048 3.7503 11.5476 4.29373C11.589 4.84085 12.068 5.24932 12.6126 5.20769C15.1462 5.01467 17.6512 4.91662 20.1861 4.79633C20.7337 4.76864 21.1541 4.3046 21.1275 3.76327C21.0986 3.21681 20.6341 2.79284 20.0865 2.82053Z" fill="black"/>
<path fill-rule="evenodd" clip-rule="evenodd" d="M31.5409 20.5694C25.7203 26.1437 20.1863 32.0086 14.489 37.7034C14.1027 38.0916 14.105 38.7169 14.4911 39.1016C14.8809 39.4879 15.506 39.4905 15.896 39.1038C21.5816 33.4171 27.1038 27.5604 32.9149 21.9993C33.3108 21.6192 33.3212 20.9946 32.9431 20.6002C32.5613 20.2044 31.9354 20.1929 31.5409 20.5694Z" fill="black"/>
<path fill-rule="evenodd" clip-rule="evenodd" d="M57.9136 32.9336C56.4708 39.5891 55.2126 46.2956 53.6953 52.9346C53.5768 53.4659 53.9103 53.9956 54.4415 54.1187C54.9764 54.2431 55.5081 53.9077 55.6304 53.3779C57.1468 46.7301 58.408 40.0162 59.8499 33.3519C59.9647 32.8192 59.6261 32.2916 59.092 32.176C58.5542 32.0588 58.0299 32.3973 57.9136 32.9336Z" fill="black"/>
</svg>
